<?xml version="1.0" encoding="UTF-8"?>
<svg id="Layer_2" data-name="Layer 2" xmlns="http://www.w3.org/2000/svg" viewBox="0 0 564.47 115.47">
  <defs>
    <style>
      .cls-1 {
        fill: #003066;
      }

      .cls-2 {
        fill: #ffd900;
      }

      .cls-3 {
        fill: #0056b8;
      }

      .cls-4 {
        fill: #f9da49;
      }
    </style>
  </defs>
  <g id="Layer_1-2" data-name="Layer 1">
    <g>
      <g>
        <path class="cls-2" d="M187.49,63.97c-3.1,0-5.91-.67-8.43-2.02-2.52-1.35-4.53-3.3-6.02-5.85-1.49-2.55-2.24-5.58-2.24-9.07s.59-6.61,1.76-9.5c1.17-2.89,2.78-5.42,4.82-7.57,2.04-2.15,4.37-3.81,7.01-4.99,2.64-1.17,5.42-1.76,8.34-1.76,2.52,0,4.89.29,7.09.86,2.21.57,4.2,1.35,5.98,2.32l-2.06,11.44h-6.45c.06-2.58-.27-4.56-.99-5.93s-1.96-2.06-3.74-2.06c-1.38,0-2.68.62-3.91,1.85-1.23,1.23-2.24,3-3.01,5.29-.77,2.29-1.16,5.07-1.16,8.34s.72,5.8,2.15,7.44c1.43,1.63,3.41,2.45,5.93,2.45,1.49,0,3.01-.21,4.56-.65,1.55-.43,3.04-.99,4.47-1.68l-.86,6.11c-1.61,1.61-3.5,2.84-5.68,3.7-2.18.86-4.7,1.29-7.57,1.29Z"/>
        <path class="cls-2" d="M222.67,63.37h-12.81l4.64-26.32c.29-1.66.13-2.89-.47-3.7-.6-.8-1.71-1.38-3.31-1.72l.86-4.73,12.13-3.1h4.9l-1.63,9.2h.86l-5.16,30.36ZM246.06,63.37h-12.81l3.96-23.65c.4-2.35.21-4.05-.56-5.12-.77-1.06-2.19-1.59-4.26-1.59-1.09,0-2.42.2-4,.6-1.58.4-3.17,1.09-4.77,2.06l-.69-1.55c3.1-3.84,6-6.62,8.73-8.34,2.72-1.72,5.29-2.58,7.7-2.58,4.07,0,7.04,1.49,8.9,4.47,1.86,2.98,2.42,6.79,1.68,11.44l-3.87,24.25ZM265.5,63.89c-2.98,0-5.19-.92-6.62-2.75-1.43-1.83-1.81-4.59-1.12-8.26l2.41-13.16c.46-2.35.29-4.05-.52-5.12-.8-1.06-2.24-1.59-4.3-1.59-1.09,0-2.42.2-4,.6-1.58.4-3.17,1.09-4.77,2.06l-1.46-2.32c3.04-3.61,6.02-6.21,8.94-7.78,2.92-1.58,5.65-2.37,8.17-2.37,2.75,0,5.02.69,6.79,2.06,1.78,1.38,3.01,3.25,3.7,5.63.69,2.38.74,5.09.17,8.13l-2.67,14.1c-.23,1.09-.14,1.88.26,2.37.4.49,1.2.73,2.41.73.74,0,1.4-.06,1.98-.17l-.95,5.5c-.92.69-2.14,1.25-3.66,1.68-1.52.43-3.11.64-4.77.64Z"/>
        <path class="cls-2" d="M300.15,64.06c-3.38,0-6.45-.77-9.2-2.32s-4.93-3.7-6.54-6.45c-1.61-2.75-2.41-5.88-2.41-9.37s.56-6.55,1.68-9.33c1.12-2.78,2.67-5.16,4.64-7.14,1.98-1.98,4.3-3.51,6.97-4.6,2.67-1.09,5.55-1.63,8.64-1.63,3.38,0,6.44.77,9.16,2.32,2.72,1.55,4.9,3.68,6.54,6.41,1.63,2.72,2.45,5.86,2.45,9.42s-.56,6.55-1.68,9.33c-1.12,2.78-2.68,5.16-4.69,7.14-2.01,1.98-4.33,3.51-6.97,4.6-2.64,1.09-5.5,1.63-8.6,1.63ZM300.58,57.52c1.03,0,2.03-.44,3.01-1.33.97-.89,1.82-2.16,2.54-3.83.72-1.66,1.29-3.64,1.72-5.93.43-2.29.65-4.84.65-7.65s-.45-5.16-1.33-6.71c-.89-1.55-2.11-2.32-3.66-2.32-1.09,0-2.11.44-3.05,1.33-.95.89-1.78,2.17-2.49,3.83-.72,1.66-1.29,3.64-1.72,5.93-.43,2.29-.65,4.85-.65,7.65s.43,5.16,1.29,6.71,2.09,2.32,3.7,2.32Z"/>
        <path class="cls-2" d="M341.35,63.37h-12.81l4.64-26.32c.29-1.66.13-2.89-.47-3.7-.6-.8-1.71-1.38-3.31-1.72l.86-4.73,12.13-3.1h4.9l-1.63,9.2h.86l-5.16,30.36ZM361.64,63.89c-2.98,0-5.19-.92-6.62-2.75-1.43-1.83-1.81-4.59-1.12-8.26l2.41-13.16c.46-2.35.29-4.05-.52-5.12-.8-1.06-2.24-1.59-4.3-1.59-1.09,0-2.42.2-4,.6-1.58.4-3.17,1.09-4.77,2.06l-.69-1.55c3.1-3.84,5.99-6.62,8.69-8.34,2.69-1.72,5.25-2.58,7.65-2.58,2.75,0,5.02.69,6.79,2.06,1.78,1.38,3.01,3.25,3.7,5.63.69,2.38.75,5.09.17,8.13l-2.67,14.1c-.23,1.09-.14,1.88.26,2.37.4.49,1.2.73,2.41.73.75,0,1.4-.06,1.98-.17l-.95,5.5c-.92.69-2.14,1.25-3.66,1.68-1.52.43-3.11.64-4.77.64Z"/>
        <path class="cls-2" d="M383.57,63.97c-2.24,0-4.03-.67-5.38-2.02-1.35-1.35-2.02-3.02-2.02-5.03,0-2.18.82-4.07,2.45-5.68,1.63-1.6,3.6-2.41,5.89-2.41s4.03.67,5.38,2.02c1.35,1.35,2.02,3.02,2.02,5.03,0,2.18-.82,4.07-2.45,5.68-1.63,1.61-3.6,2.41-5.89,2.41Z"/>
        <path class="cls-2" d="M412.81,63.37h-12.81l4.64-26.32c.29-1.66.13-2.89-.47-3.7-.6-.8-1.71-1.38-3.31-1.72l.86-4.73,12.13-3.1h4.9l-1.55,8.6h.86l-5.25,30.96ZM431.99,23.21l-2.41,13.76h-2.93l-11.18-4.9.17-.95c1.2-1.15,2.64-2.32,4.3-3.53,1.66-1.2,3.51-2.24,5.55-3.1s4.2-1.29,6.49-1.29Z"/>
        <path class="cls-2" d="M444.97,63.97c-2.29,0-4.73-.27-7.31-.82-2.58-.54-4.53-1.22-5.85-2.02l1.89-10.75h5.59c0,2.47.6,4.36,1.81,5.68,1.2,1.32,2.72,1.98,4.56,1.98,1.55,0,2.75-.34,3.61-1.03.86-.69,1.29-1.66,1.29-2.92s-.49-2.26-1.46-3.18c-.98-.92-2.19-1.82-3.66-2.71-1.46-.89-2.92-1.88-4.39-2.97-1.46-1.09-2.68-2.38-3.66-3.87-.98-1.49-1.46-3.33-1.46-5.5,0-3.78,1.46-6.84,4.39-9.16,2.92-2.32,6.79-3.48,11.61-3.48,2.52,0,4.89.23,7.09.69s4.29,1.09,6.24,1.89l-1.72,9.8h-5.59c0-2.24-.49-3.87-1.46-4.9-.98-1.03-2.27-1.55-3.87-1.55s-2.71.37-3.48,1.12c-.77.75-1.16,1.72-1.16,2.92s.49,2.16,1.46,3.05c.97.89,2.19,1.75,3.66,2.58s2.92,1.76,4.39,2.79,2.68,2.27,3.66,3.7c.97,1.43,1.46,3.21,1.46,5.33,0,3.84-1.55,7.02-4.64,9.55-3.1,2.52-7.43,3.78-12.99,3.78Z"/>
        <path class="cls-2" d="M478.86,63.37l-5.85-29.5c-.23-1.03-.57-1.81-1.03-2.32-.46-.52-1.32-.77-2.58-.77-.69,0-1.32.06-1.89.17l.86-5.5c.97-.69,2.16-1.25,3.57-1.68,1.4-.43,2.91-.65,4.52-.65,3.21,0,5.43.85,6.67,2.54,1.23,1.69,2.13,4.31,2.71,7.87l3.96,22.79-2.15.26c1.6-2.64,3.02-5.17,4.26-7.61,1.23-2.44,2.34-4.89,3.31-7.35.97-2.46,1.83-5.04,2.58-7.74.52-1.89.47-3.25-.13-4.08-.6-.83-1.56-1.25-2.88-1.25l.86-4.73h14.88c0,1.43-.29,3.3-.86,5.59-.57,2.29-1.26,4.36-2.06,6.19-1.38,3.15-2.87,6.15-4.47,8.99-1.61,2.84-3.44,5.75-5.5,8.73-2.06,2.98-4.53,6.34-7.4,10.06h-11.35Z"/>
        <path class="cls-2" d="M523.83,80.57h-12.81l7.4-42.23c.29-1.66.13-2.89-.47-3.7-.6-.8-1.71-1.38-3.31-1.72l.86-4.73,12.38-4.39h4.64l-.95,5.5,1.12.86-8.86,50.4ZM531.83,32.5l-.86-3.18c1.72-1.83,3.5-3.31,5.33-4.43,1.83-1.12,4.07-1.68,6.71-1.68s5.12.66,7.27,1.98c2.15,1.32,3.86,3.2,5.12,5.63,1.26,2.44,1.89,5.38,1.89,8.81,0,3.15-.53,6.19-1.59,9.12-1.06,2.92-2.58,5.53-4.56,7.83-1.98,2.29-4.37,4.1-7.18,5.42-2.81,1.32-5.96,1.98-9.46,1.98-1.61,0-3.11-.14-4.52-.43-1.41-.29-2.65-.72-3.74-1.29l1.03-4.82c.8.23,1.6.43,2.41.6.8.17,1.66.26,2.58.26,2.12,0,4.04-.72,5.76-2.15,1.72-1.43,3.08-3.45,4.08-6.06,1-2.61,1.51-5.66,1.51-9.16,0-2.92-.65-5.19-1.94-6.79-1.29-1.6-3.02-2.41-5.2-2.41-.86,0-1.65.06-2.37.17-.72.12-1.48.32-2.28.6Z"/>
      </g>
      <g>
        <path class="cls-2" d="M170.43,95.43v-3.84h10.75v3.84h-10.75ZM172.95,108.11v-18.11c0-1.04.23-1.99.7-2.85.47-.85,1.11-1.53,1.94-2.02.82-.49,1.79-.74,2.9-.74.75,0,1.45.12,2.11.37.66.25,1.23.58,1.7,1.01l-1.34,3.33c-.28-.17-.56-.31-.85-.43-.29-.12-.55-.18-.78-.18-.41,0-.74.07-1.01.21-.27.14-.46.34-.59.61-.13.27-.19.6-.19,1.01v17.79h-4.58ZM186.84,87.69c-.88,0-1.56-.21-2.05-.64s-.74-1.04-.74-1.82c0-.73.25-1.32.75-1.78.5-.46,1.18-.69,2.03-.69s1.56.22,2.05.66c.49.44.74,1.04.74,1.81s-.25,1.34-.75,1.79c-.5.45-1.18.67-2.03.67ZM184.6,108.11v-16.93h4.54v16.93h-4.54Z"/>
        <path class="cls-2" d="M194.01,108.11v-16.93h4.35l.13,3.46-.9.38c.23-.77.66-1.47,1.26-2.1.61-.63,1.34-1.14,2.19-1.52s1.75-.58,2.69-.58c1.28,0,2.35.26,3.22.77.86.51,1.51,1.29,1.95,2.32.44,1.04.66,2.31.66,3.82v10.37h-4.54v-10.02c0-.77-.11-1.41-.32-1.92-.21-.51-.54-.89-.98-1.14-.44-.25-.98-.35-1.62-.3-.51,0-.99.08-1.42.24-.44.16-.81.39-1.12.69-.31.3-.55.64-.74,1.02-.18.38-.27.8-.27,1.25v10.18h-4.54Z"/>
        <path class="cls-2" d="M220.54,108.43c-1.47,0-2.79-.38-3.97-1.14-1.17-.76-2.1-1.79-2.77-3.1-.67-1.31-1.01-2.83-1.01-4.56s.34-3.19,1.01-4.51c.67-1.32,1.59-2.37,2.75-3.14,1.16-.77,2.49-1.15,3.98-1.15.79,0,1.55.12,2.29.37.74.25,1.4.58,1.98,1.01.59.43,1.06.9,1.42,1.42.36.52.57,1.07.61,1.65l-1.15.19v-11.04h4.54v23.68h-4.29l-.19-3.9.9.1c-.04.53-.23,1.04-.58,1.54-.34.49-.79.93-1.36,1.33-.57.4-1.21.7-1.92.93-.71.22-1.47.34-2.26.34ZM221.56,104.65c.85,0,1.6-.21,2.24-.64.64-.43,1.14-1.01,1.5-1.76.36-.75.54-1.62.54-2.62s-.18-1.85-.54-2.61c-.36-.76-.86-1.34-1.5-1.76-.64-.42-1.39-.62-2.24-.62s-1.59.21-2.22.62c-.63.42-1.12,1-1.47,1.76-.35.76-.53,1.63-.53,2.61s.18,1.88.53,2.62c.35.75.84,1.33,1.47,1.76.63.43,1.37.64,2.22.64Z"/>
        <path class="cls-2" d="M250.81,108.43c-1.41,0-2.68-.38-3.81-1.15s-2.03-1.81-2.69-3.14c-.66-1.32-.99-2.84-.99-4.54s.34-3.22,1.01-4.53c.67-1.31,1.58-2.35,2.74-3.1,1.15-.76,2.46-1.14,3.94-1.14.83,0,1.59.12,2.29.37.69.25,1.3.58,1.82,1.01.52.43.96.92,1.33,1.47.36.55.62,1.15.77,1.79l-.96-.16v-4.13h4.51v16.93h-4.58v-4.06l1.02-.1c-.17.6-.45,1.16-.83,1.7s-.86,1.01-1.42,1.42-1.2.75-1.9.99c-.71.25-1.45.37-2.24.37ZM252.06,104.49c.85,0,1.6-.2,2.24-.61.64-.41,1.13-.98,1.49-1.71.35-.74.53-1.59.53-2.58s-.18-1.8-.53-2.53c-.35-.72-.85-1.3-1.49-1.71-.64-.42-1.39-.62-2.24-.62s-1.56.21-2.19.62c-.63.42-1.13.99-1.49,1.71-.36.73-.54,1.57-.54,2.53s.18,1.84.54,2.58c.36.74.86,1.31,1.49,1.71.63.41,1.36.61,2.19.61Z"/>
        <path class="cls-2" d="M273.59,95.24v-4.06h11.17v4.06h-11.17ZM276.76,108.11v-21.22h4.54v21.22h-4.54Z"/>
        <path class="cls-2" d="M290.36,87.69c-.88,0-1.56-.21-2.05-.64-.49-.43-.74-1.04-.74-1.82,0-.73.25-1.32.75-1.78.5-.46,1.18-.69,2.03-.69s1.56.22,2.05.66c.49.44.74,1.04.74,1.81s-.25,1.34-.75,1.79c-.5.45-1.18.67-2.03.67ZM288.12,108.11v-16.93h4.54v16.93h-4.54Z"/>
        <path class="cls-2" d="M297.5,108.11v-16.93h4.38l.1,3.23-.67.13c.24-.55.54-1.06.93-1.5.38-.45.84-.83,1.36-1.15.52-.32,1.07-.57,1.65-.75.58-.18,1.15-.27,1.73-.27.88,0,1.66.14,2.37.42.7.28,1.3.71,1.79,1.3.49.59.88,1.36,1.15,2.32l-.7-.06.22-.51c.28-.51.63-.98,1.06-1.39.43-.42.91-.78,1.44-1.09.53-.31,1.09-.55,1.66-.72.58-.17,1.14-.26,1.7-.26,1.32,0,2.42.26,3.3.78s1.53,1.31,1.97,2.35c.44,1.05.66,2.33.66,3.84v10.27h-4.54v-9.95c0-.77-.11-1.4-.32-1.89-.21-.49-.52-.86-.93-1.1-.41-.25-.93-.37-1.57-.37-.49,0-.94.08-1.36.24s-.78.38-1.09.67c-.31.29-.55.62-.72,1.01-.17.38-.26.81-.26,1.28v10.11h-4.54v-9.98c0-.7-.11-1.31-.34-1.81-.22-.5-.54-.88-.94-1.14-.4-.26-.91-.38-1.5-.38-.49,0-.94.08-1.36.24s-.77.38-1.07.67-.54.62-.72,1.01c-.18.38-.27.8-.27,1.25v10.14h-4.54Z"/>
        <path class="cls-2" d="M335.93,108.43c-1.84,0-3.44-.37-4.8-1.12s-2.43-1.77-3.2-3.07c-.77-1.3-1.15-2.79-1.15-4.48,0-1.3.21-2.5.64-3.58.43-1.09,1.02-2.03,1.79-2.83.77-.8,1.68-1.42,2.74-1.86,1.06-.44,2.2-.66,3.44-.66,1.15,0,2.22.21,3.2.62s1.83,1,2.54,1.76c.71.76,1.26,1.65,1.65,2.67.38,1.02.55,2.14.51,3.36l-.03,1.41h-13.6l-.74-2.78h10.59l-.51.58v-.7c-.04-.58-.23-1.1-.56-1.57-.33-.47-.75-.83-1.26-1.09-.51-.26-1.09-.38-1.73-.38-.94,0-1.73.18-2.38.54-.65.36-1.15.9-1.49,1.6-.34.7-.51,1.56-.51,2.56s.22,1.91.66,2.66,1.06,1.33,1.86,1.74,1.74.62,2.83.62c.75,0,1.43-.12,2.05-.35.62-.23,1.28-.64,1.98-1.22l2.18,3.04c-.62.55-1.3,1.02-2.05,1.39-.75.37-1.51.66-2.3.85-.79.19-1.57.29-2.34.29Z"/>
        <path class="cls-2" d="M355.25,95.43v-3.84h10.75v3.84h-10.75ZM357.78,108.11v-18.11c0-1.04.23-1.99.7-2.85s1.12-1.53,1.94-2.02c.82-.49,1.79-.74,2.9-.74.75,0,1.45.12,2.11.37s1.23.58,1.7,1.01l-1.34,3.33c-.28-.17-.56-.31-.85-.43-.29-.12-.55-.18-.78-.18-.41,0-.74.07-1.01.21-.27.14-.46.34-.59.61s-.19.6-.19,1.01v17.79h-4.58Z"/>
        <path class="cls-2" d="M376.28,108.43c-1.73,0-3.27-.38-4.62-1.14-1.35-.76-2.42-1.8-3.2-3.12-.78-1.32-1.17-2.84-1.17-4.54s.39-3.22,1.17-4.53c.78-1.31,1.84-2.35,3.2-3.12,1.36-.77,2.9-1.15,4.62-1.15s3.24.38,4.59,1.15c1.35.77,2.42,1.81,3.18,3.12.77,1.31,1.15,2.82,1.15,4.53s-.38,3.22-1.15,4.54c-.77,1.32-1.83,2.36-3.18,3.12-1.36.76-2.89,1.14-4.59,1.14ZM376.28,104.46c.83,0,1.58-.21,2.24-.62s1.18-.99,1.55-1.73.56-1.56.56-2.48-.19-1.78-.56-2.51c-.37-.74-.89-1.31-1.55-1.73s-1.41-.62-2.24-.62-1.61.21-2.27.64-1.18,1-1.57,1.73c-.38.72-.57,1.56-.54,2.5-.02.92.16,1.74.54,2.48.38.74.91,1.31,1.57,1.73s1.42.62,2.27.62Z"/>
        <path class="cls-2" d="M388.63,108.11v-16.93h4.38l.16,5.44-.77-1.12c.26-.87.67-1.67,1.25-2.38.58-.71,1.25-1.27,2.03-1.68.78-.41,1.59-.61,2.45-.61.36,0,.71.03,1.06.1.34.06.63.14.86.22l-1.22,4.99c-.26-.13-.56-.24-.93-.34-.36-.1-.74-.14-1.12-.14-.51,0-.99.09-1.42.27-.44.18-.82.44-1.14.77-.32.33-.57.72-.75,1.17-.18.45-.27.94-.27,1.47v8.77h-4.58Z"/>
        <path class="cls-2" d="M420.5,108.43c-1.83,0-3.44-.37-4.8-1.12s-2.43-1.77-3.2-3.07c-.77-1.3-1.15-2.79-1.15-4.48,0-1.3.21-2.5.64-3.58.43-1.09,1.02-2.03,1.79-2.83.77-.8,1.68-1.42,2.74-1.86,1.06-.44,2.2-.66,3.44-.66,1.15,0,2.22.21,3.2.62.98.42,1.83,1,2.54,1.76.71.76,1.26,1.65,1.65,2.67.38,1.02.55,2.14.51,3.36l-.03,1.41h-13.6l-.74-2.78h10.59l-.51.58v-.7c-.04-.58-.23-1.1-.56-1.57-.33-.47-.75-.83-1.26-1.09-.51-.26-1.09-.38-1.73-.38-.94,0-1.73.18-2.38.54-.65.36-1.15.9-1.49,1.6-.34.7-.51,1.56-.51,2.56s.22,1.91.66,2.66c.44.75,1.06,1.33,1.86,1.74.8.42,1.74.62,2.83.62.75,0,1.43-.12,2.05-.35.62-.23,1.28-.64,1.98-1.22l2.18,3.04c-.62.55-1.3,1.02-2.05,1.39s-1.52.66-2.3.85c-.79.19-1.57.29-2.34.29Z"/>
        <path class="cls-2" d="M436.21,108.11l-7.1-16.93h4.99l4.51,12.64-1.06.19,4.74-12.83h4.86l-7.46,16.93h-3.49Z"/>
        <path class="cls-2" d="M457.49,108.43c-1.83,0-3.43-.37-4.8-1.12s-2.43-1.77-3.2-3.07c-.77-1.3-1.15-2.79-1.15-4.48,0-1.3.21-2.5.64-3.58.43-1.09,1.02-2.03,1.79-2.83.77-.8,1.68-1.42,2.74-1.86,1.06-.44,2.2-.66,3.44-.66,1.15,0,2.22.21,3.2.62s1.83,1,2.54,1.76c.71.76,1.26,1.65,1.65,2.67.38,1.02.55,2.14.51,3.36l-.03,1.41h-13.6l-.74-2.78h10.59l-.51.58v-.7c-.04-.58-.23-1.1-.56-1.57-.33-.47-.75-.83-1.26-1.09-.51-.26-1.09-.38-1.73-.38-.94,0-1.73.18-2.38.54-.65.36-1.15.9-1.49,1.6-.34.7-.51,1.56-.51,2.56s.22,1.91.66,2.66,1.06,1.33,1.86,1.74,1.74.62,2.83.62c.75,0,1.43-.12,2.05-.35.62-.23,1.28-.64,1.98-1.22l2.18,3.04c-.62.55-1.3,1.02-2.05,1.39-.75.37-1.52.66-2.3.85-.79.19-1.57.29-2.34.29Z"/>
        <path class="cls-2" d="M468.21,108.11v-16.93h4.38l.16,5.44-.77-1.12c.26-.87.67-1.67,1.25-2.38.58-.71,1.25-1.27,2.03-1.68.78-.41,1.59-.61,2.45-.61.36,0,.71.03,1.06.1.34.06.63.14.86.22l-1.22,4.99c-.26-.13-.57-.24-.93-.34-.36-.1-.74-.14-1.12-.14-.51,0-.99.09-1.42.27s-.82.44-1.14.77c-.32.33-.57.72-.75,1.17-.18.45-.27.94-.27,1.47v8.77h-4.58Z"/>
        <path class="cls-2" d="M484.6,115.47l3.71-8.7.06,2.62-8.26-18.21h5.15l4.13,9.76c.17.36.34.78.5,1.26.16.48.29.94.4,1.39l-.77.32c.13-.36.28-.78.45-1.25.17-.47.34-.97.51-1.5l3.55-9.98h5.18l-7.1,16.93-2.91,7.36h-4.61Z"/>
        <path class="cls-2" d="M509.2,108.43c-1.73,0-3.27-.38-4.62-1.14-1.35-.76-2.42-1.8-3.2-3.12-.78-1.32-1.17-2.84-1.17-4.54s.39-3.22,1.17-4.53c.78-1.31,1.84-2.35,3.2-3.12,1.35-.77,2.9-1.15,4.62-1.15s3.24.38,4.59,1.15c1.35.77,2.42,1.81,3.18,3.12.77,1.31,1.15,2.82,1.15,4.53s-.38,3.22-1.15,4.54c-.77,1.32-1.83,2.36-3.18,3.12-1.36.76-2.89,1.14-4.59,1.14ZM509.2,104.46c.83,0,1.58-.21,2.24-.62s1.18-.99,1.55-1.73.56-1.56.56-2.48-.19-1.78-.56-2.51c-.37-.74-.89-1.31-1.55-1.73s-1.41-.62-2.24-.62-1.61.21-2.27.64-1.18,1-1.57,1.73c-.38.72-.57,1.56-.54,2.5-.02.92.16,1.74.54,2.48.38.74.91,1.31,1.57,1.73s1.42.62,2.27.62Z"/>
        <path class="cls-2" d="M521.56,108.11v-16.93h4.35l.13,3.46-.9.38c.23-.77.66-1.47,1.26-2.1.61-.63,1.34-1.14,2.19-1.52.85-.38,1.75-.58,2.69-.58,1.28,0,2.35.26,3.22.77.86.51,1.51,1.29,1.95,2.32.44,1.04.66,2.31.66,3.82v10.37h-4.54v-10.02c0-.77-.11-1.41-.32-1.92-.21-.51-.54-.89-.98-1.14-.44-.25-.98-.35-1.62-.3-.51,0-.99.08-1.42.24-.44.16-.81.39-1.12.69-.31.3-.56.64-.74,1.02-.18.38-.27.8-.27,1.25v10.18h-4.54Z"/>
        <path class="cls-2" d="M549.49,108.43c-1.83,0-3.43-.37-4.8-1.12s-2.43-1.77-3.2-3.07c-.77-1.3-1.15-2.79-1.15-4.48,0-1.3.21-2.5.64-3.58.43-1.09,1.02-2.03,1.79-2.83.77-.8,1.68-1.42,2.74-1.86,1.06-.44,2.2-.66,3.44-.66,1.15,0,2.22.21,3.2.62s1.83,1,2.54,1.76c.71.76,1.26,1.65,1.65,2.67.38,1.02.55,2.14.51,3.36l-.03,1.41h-13.6l-.74-2.78h10.59l-.51.58v-.7c-.04-.58-.23-1.1-.56-1.57-.33-.47-.75-.83-1.26-1.09-.51-.26-1.09-.38-1.73-.38-.94,0-1.73.18-2.38.54-.65.36-1.15.9-1.49,1.6-.34.7-.51,1.56-.51,2.56s.22,1.91.66,2.66,1.06,1.33,1.86,1.74,1.74.62,2.83.62c.75,0,1.43-.12,2.05-.35.62-.23,1.28-.64,1.98-1.22l2.18,3.04c-.62.55-1.3,1.02-2.05,1.39-.75.37-1.52.66-2.3.85-.79.19-1.57.29-2.34.29Z"/>
        <path class="cls-2" d="M561.91,108.46c-.83,0-1.47-.23-1.92-.7-.45-.47-.67-1.14-.67-2.02,0-.79.24-1.43.72-1.94.48-.5,1.1-.75,1.87-.75.81,0,1.44.23,1.89.7.45.47.67,1.13.67,1.98s-.24,1.47-.7,1.97c-.47.5-1.09.75-1.86.75Z"/>
      </g>
    </g>
    <rect class="cls-1" x="20" y="0" width="15" height="30" rx="7.5" ry="7.5"/>
    <rect class="cls-1" x="64.75" y="0" width="15" height="30" rx="7.5" ry="7.5"/>
    <path class="cls-3" d="M12,15h76c6.62,0,12,5.38,12,12v10.5H0v-10.5c0-6.62,5.38-12,12-12Z"/>
    <rect class="cls-4" y="42.5" width="30" height="24.17"/>
    <rect class="cls-4" x="70" y="42.5" width="30" height="24.17"/>
    <rect class="cls-3" x="35" y="42.5" width="30" height="24.17"/>
    <rect class="cls-3" y="66.67" width="30" height="24.17"/>
    <rect class="cls-3" x="70" y="66.67" width="30" height="24.17"/>
    <rect class="cls-4" x="35" y="66.67" width="30" height="24.17"/>
    <path class="cls-3" d="M0,90.83h30v24.17H12C5.38,115,0,109.62,0,103v-12.17H0Z"/>
    <path class="cls-3" d="M70,90.83h30v12.17c0,6.62-5.38,12-12,12h-18v-24.17h0Z"/>
    <rect class="cls-3" x="35" y="90.83" width="30" height="24.17"/>
  </g>
</svg>