<?xml version="1.0" encoding="UTF-8"?>
<svg id="Layer_2" data-name="Layer 2" xmlns="http://www.w3.org/2000/svg" viewBox="0 0 100 115">
  <defs>
    <style>
      .cls-1 {
        fill: #003066;
      }

      .cls-2 {
        fill: #0056b8;
      }

      .cls-3 {
        fill: #f9da49;
      }
    </style>
  </defs>
  <g id="Layer_1-2" data-name="Layer 1">
    <rect class="cls-1" x="20" y="0" width="15" height="30" rx="7.5" ry="7.5"/>
    <rect class="cls-1" x="64.75" y="0" width="15" height="30" rx="7.5" ry="7.5"/>
    <path class="cls-2" d="M12,15h76c6.62,0,12,5.38,12,12v10.5H0v-10.5c0-6.62,5.38-12,12-12Z"/>
    <rect class="cls-3" y="42.5" width="30" height="24.17"/>
    <rect class="cls-3" x="70" y="42.5" width="30" height="24.17"/>
    <rect class="cls-2" x="35" y="42.5" width="30" height="24.17"/>
    <rect class="cls-2" y="66.67" width="30" height="24.17"/>
    <rect class="cls-2" x="70" y="66.67" width="30" height="24.17"/>
    <rect class="cls-3" x="35" y="66.67" width="30" height="24.17"/>
    <path class="cls-2" d="M0,90.83h30v24.17H12C5.38,115,0,109.62,0,103v-12.17H0Z"/>
    <path class="cls-2" d="M70,90.83h30v12.17c0,6.62-5.38,12-12,12h-18v-24.17h0Z"/>
    <rect class="cls-2" x="35" y="90.83" width="30" height="24.17"/>
  </g>
</svg>